<svg xmlns="http://www.w3.org/2000/svg" xmlns:xlink="http://www.w3.org/1999/xlink" width="500" height="500" viewBox="0 0 500 500">
  <defs>
    <clipPath id="clip-layout_editor_logo">
      <rect width="500" height="500"/>
    </clipPath>
  </defs>
  <g id="layout_editor_logo" clip-path="url(#clip-layout_editor_logo)">
    <rect id="Rechteck_2" data-name="Rechteck 2" width="500" height="500" rx="100" fill="#70f"/>
    <g id="Gruppe_2" data-name="Gruppe 2" transform="translate(-32.123 -88.184)">
      <rect id="Rechteck_5" data-name="Rechteck 5" width="192" height="72" rx="36" transform="translate(162.123 302.184)" fill="#5000ac"/>
      <rect id="Rechteck_6" data-name="Rechteck 6" width="144" height="72" rx="36" transform="translate(162.123 158.184)" fill="#5000ac"/>
      <path id="Rechteck_3" data-name="Rechteck 3" d="M36,0H72a0,0,0,0,1,0,0V324a36,36,0,0,1-36,36h0A36,36,0,0,1,0,324V36A36,36,0,0,1,36,0Z" transform="translate(162.123 158.184)" fill="#fff"/>
      <rect id="Rechteck_4" data-name="Rechteck 4" width="240" height="72" rx="36" transform="translate(162.123 446.184)" fill="#fff"/>
    </g>
  </g>
</svg>
