<svg xmlns="http://www.w3.org/2000/svg" xmlns:xlink="http://www.w3.org/1999/xlink" width="500" height="500" viewBox="0 0 500 500">
  <defs>
    <clipPath id="clip-layout_editor_logo">
      <rect width="500" height="500"/>
    </clipPath>
  </defs>
  <g id="layout_editor_logo" clip-path="url(#clip-layout_editor_logo)">
    <rect id="Rechteck_2" data-name="Rechteck 2" width="500" height="500" rx="100" fill="#0984e3"/>
    <g id="Gruppe_2" data-name="Gruppe 2" transform="translate(-13.514 -79.542)">
      <rect id="Rechteck_5" data-name="Rechteck 5" width="182" height="68" transform="translate(162.514 295.542)" fill="#fff" opacity="0.6"/>
      <rect id="Rechteck_6" data-name="Rechteck 6" width="182" height="68" transform="translate(162.514 158.542)" fill="#fff" opacity="0.6"/>
      <path id="Rechteck_3" data-name="Rechteck 3" d="M0,0H68a0,0,0,0,1,0,0V342a0,0,0,0,1,0,0h0A68,68,0,0,1,0,274V0A0,0,0,0,1,0,0Z" transform="translate(162.514 158.542)" fill="#fff"/>
      <path id="Rechteck_4" data-name="Rechteck 4" d="M0,0H182a0,0,0,0,1,0,0V68a0,0,0,0,1,0,0H68A68,68,0,0,1,0,0V0A0,0,0,0,1,0,0Z" transform="translate(162.514 432.542)" fill="#fff"/>
    </g>
  </g>
</svg>
